<svg xmlns="http://www.w3.org/2000/svg" width="50.819" height="54.751" viewBox="0 0 50.819 54.751"><g opacity="0.998"><path d="M226.083,110.578l6.244-21.985a2.547,2.547,0,0,0-1.752-3.142l-21.1-5.992-4.1,14.155,1.055,1.055c1.643-1.641,4.57-4.566,6.361-6.357a2.886,2.886,0,0,1,4.875,2.582,2.929,2.929,0,0,1,.338-.02,2.887,2.887,0,0,1,2.228,4.722,2.884,2.884,0,0,1,1.859,4.724,2.886,2.886,0,0,1,1.689,4.906l-5.72,5.72,4.88,1.386a2.547,2.547,0,0,0,3.142-1.752Z" transform="translate(-185.642 -71.87)" fill="#e5e5e5"/><path d="M121.382,175.491a1.766,1.766,0,0,0-3.014-1.249l-1.338,1.339-1.338,1.338a.561.561,0,0,1-.793-.793l4.112-4.112a1.766,1.766,0,1,0-2.5-2.5L112.4,173.63a.557.557,0,0,1-.679.085.545.545,0,0,1-.114-.085.56.56,0,0,1,0-.793l5.522-5.522a1.766,1.766,0,0,0-2.5-2.5l-5.522,5.522a.57.57,0,0,1-.793,0,.56.56,0,0,1,0-.793l5.522-5.522h0l.116-.116a1.766,1.766,0,0,0-2.5-2.5c-2.812,2.811-7.538,7.535-7.6,7.595a5.805,5.805,0,0,1-5.066,1.37.56.56,0,1,1,.222-1.1,4.682,4.682,0,0,0,4.081-1.093l.419-.417-2.5-2.5a2.549,2.549,0,0,0-3.6,0l-3.266,3.266a3.428,3.428,0,0,0-1.011,2.44v1.738a10.711,10.711,0,0,1-2.774,7.222l12.413,12.413,7.282-5.078a12.829,12.829,0,0,0,1.729-1.448l9.081-9.081A1.755,1.755,0,0,0,121.382,175.491Z" transform="translate(-83.519 -144.178)" fill="#e5e5e5"/><path d="M0,0H5.479V22.248H0Z" transform="translate(0.773 39.021) rotate(-45)" fill="#e5e5e5"/><path d="M153.113,82.669l.543.543,3.926-13.556-2.8-.8a2.547,2.547,0,0,0-3.142,1.752l-3.491,11.856a3.671,3.671,0,0,1,4.967.2Z" transform="translate(-134.826 -62.374)" fill="#e5e5e5"/><path d="M155.722,42.647a.56.56,0,0,0,.539-.407,2.547,2.547,0,0,1,3.142-1.752.56.56,0,1,0,.306-1.078,3.669,3.669,0,0,0-4.526,2.524.56.56,0,0,0,.539.714Z" transform="translate(-141.055 -36.186)" fill="#e5e5e5"/><path d="M128.564,17.552a.56.56,0,0,0,.692-.386,5.89,5.89,0,0,1,7.276-4.057.56.56,0,1,0,.306-1.078,7.012,7.012,0,0,0-8.66,4.829.56.56,0,0,0,.386.692Z" transform="translate(-117.077 -11.762)" fill="#e5e5e5"/><path d="M375,378.74a2.547,2.547,0,0,1-3.142,1.753.56.56,0,1,0-.306,1.078,3.663,3.663,0,0,0,4.527-2.524A.56.56,0,1,0,375,378.74Z" transform="translate(-332.827 -337.243)" fill="#e5e5e5"/><path d="M366,379.3a.56.56,0,0,0-.692.386,6.814,6.814,0,0,1-8.416,4.693.56.56,0,1,0-.306,1.078,7.92,7.92,0,0,0,9.8-5.465A.56.56,0,0,0,366,379.3Z" transform="translate(-319.541 -338.087)" fill="#e5e5e5"/><path d="M430.485,291.82a3.744,3.744,0,0,1-2.356-2.357.56.56,0,0,0-1.064,0,3.743,3.743,0,0,1-2.356,2.357.561.561,0,0,0,0,1.063,3.743,3.743,0,0,1,2.356,2.357.56.56,0,0,0,1.064,0,3.744,3.744,0,0,1,2.356-2.357.56.56,0,0,0,0-1.063Z" transform="translate(-380.05 -257.994)" fill="#e5e5e5"/><ellipse cx="1.197" cy="1.198" rx="1.197" ry="1.198" transform="translate(6.807 4.067)" fill="#e5e5e5"/><path d="M31.894,81.595a.56.56,0,0,0,1.063,0A3.484,3.484,0,0,1,35.15,79.4a.56.56,0,0,0,0-1.063,3.484,3.484,0,0,1-2.193-2.194.56.56,0,0,0-1.063,0A3.485,3.485,0,0,1,29.7,78.337a.56.56,0,0,0,0,1.063A3.485,3.485,0,0,1,31.894,81.595Z" transform="translate(-29.318 -68.586)" fill="#e5e5e5"/></g></svg>