<svg xmlns="http://www.w3.org/2000/svg" xmlns:xlink="http://www.w3.org/1999/xlink" width="44.049" height="47.457" viewBox="0 0 44.049 47.457"><defs><linearGradient id="a" x1="0.5" x2="0.5" y2="1" gradientUnits="objectBoundingBox"><stop offset="0" stop-color="#0097a7"/><stop offset="1" stop-color="#006d78"/></linearGradient></defs><g opacity="0.8"><path d="M223.325,106.432l5.412-19.056a2.208,2.208,0,0,0-1.519-2.724L208.93,79.458l-3.553,12.269.914.914,5.514-5.51a2.5,2.5,0,0,1,4.226,2.238,2.534,2.534,0,0,1,.293-.017,2.5,2.5,0,0,1,1.931,4.093,2.5,2.5,0,0,1,1.611,4.094,2.5,2.5,0,0,1,1.464,4.252l-4.958,4.958,4.229,1.2a2.208,2.208,0,0,0,2.723-1.519Z" transform="translate(-188.271 -72.881)" fill="url(#a)"/><path d="M117.25,173.547a1.53,1.53,0,0,0-2.613-1.082l-1.16,1.16-1.16,1.16a.486.486,0,0,1-.687-.687l3.564-3.564a1.53,1.53,0,1,0-2.164-2.164l-3.564,3.564a.483.483,0,0,1-.589.074.474.474,0,0,1-.1-.074.486.486,0,0,1,0-.687l4.786-4.786A1.53,1.53,0,1,0,111.4,164.3l-4.786,4.786a.494.494,0,0,1-.687,0,.486.486,0,0,1,0-.687l4.786-4.786h0l.1-.1a1.53,1.53,0,0,0-2.164-2.164c-2.437,2.436-6.534,6.531-6.591,6.583a5.032,5.032,0,0,1-4.391,1.188.486.486,0,1,1,.192-.952,4.058,4.058,0,0,0,3.538-.948l.363-.362-2.169-2.169a2.209,2.209,0,0,0-3.121,0l-2.831,2.831a2.972,2.972,0,0,0-.876,2.115v1.507a9.284,9.284,0,0,1-2.4,6.26l10.759,10.759,6.312-4.4a11.122,11.122,0,0,0,1.5-1.255l7.871-7.871A1.521,1.521,0,0,0,117.25,173.547Z" transform="translate(-84.43 -146.405)" fill="url(#a)"/><path d="M0,0H4.749V19.285H0Z" transform="translate(0.67 33.823) rotate(-45)" fill="url(#a)"/><path d="M152.451,80.817l.471.471,3.4-11.75-2.429-.69a2.208,2.208,0,0,0-2.723,1.519l-3.026,10.277a3.182,3.182,0,0,1,4.305.174Z" transform="translate(-136.601 -63.225)" fill="url(#a)"/><path d="M155.647,42.2a.486.486,0,0,0,.467-.353,2.207,2.207,0,0,1,2.723-1.519.486.486,0,1,0,.265-.935,3.18,3.18,0,0,0-3.923,2.188.486.486,0,0,0,.468.619Z" transform="translate(-142.934 -36.597)" fill="url(#a)"/><path d="M128.51,16.781a.485.485,0,0,0,.6-.335,5.106,5.106,0,0,1,6.307-3.517.486.486,0,0,0,.265-.935,6.078,6.078,0,0,0-7.507,4.186.486.486,0,0,0,.335.6Z" transform="translate(-118.553 -11.762)" fill="url(#a)"/><path d="M374.485,378.686a2.208,2.208,0,0,1-2.723,1.519.486.486,0,0,0-.266.935,3.175,3.175,0,0,0,3.924-2.188.486.486,0,1,0-.935-.265Z" transform="translate(-337.931 -342.717)" fill="url(#a)"/><path d="M364.694,379.3a.486.486,0,0,0-.6.335,5.906,5.906,0,0,1-7.3,4.068.486.486,0,0,0-.265.935,6.864,6.864,0,0,0,8.5-4.737.486.486,0,0,0-.335-.6Z" transform="translate(-324.422 -343.575)" fill="url(#a)"/><path d="M429.665,291.455a3.245,3.245,0,0,1-2.042-2.043.486.486,0,0,0-.922,0,3.245,3.245,0,0,1-2.042,2.043.486.486,0,0,0,0,.922,3.245,3.245,0,0,1,2.042,2.043.486.486,0,0,0,.922,0,3.245,3.245,0,0,1,2.042-2.043.486.486,0,0,0,0-.922Z" transform="translate(-385.948 -262.135)" fill="url(#a)"/><ellipse cx="1.038" cy="1.038" rx="1.038" ry="1.038" transform="translate(5.9 3.525)" fill="url(#a)"/><path d="M31.551,80.818a.486.486,0,0,0,.922,0,3.02,3.02,0,0,1,1.9-1.9.486.486,0,0,0,0-.922,3.02,3.02,0,0,1-1.9-1.9.486.486,0,0,0-.922,0,3.021,3.021,0,0,1-1.9,1.9.486.486,0,0,0,0,.922A3.02,3.02,0,0,1,31.551,80.818Z" transform="translate(-29.318 -69.542)" fill="url(#a)"/></g></svg>