<svg xmlns="http://www.w3.org/2000/svg" width="33.952" height="36.579" viewBox="0 0 33.952 36.579"><g opacity="0.8"><path d="M219.211,100.249l4.171-14.688a1.7,1.7,0,0,0-1.171-2.1l-14.1-4-2.739,9.457.7.7,4.25-4.247a1.928,1.928,0,0,1,3.257,1.725,1.954,1.954,0,0,1,.226-.013,1.928,1.928,0,0,1,1.488,3.155,1.927,1.927,0,0,1,1.242,3.156,1.928,1.928,0,0,1,1.128,3.277l-3.821,3.821,3.26.926a1.7,1.7,0,0,0,2.1-1.171Z" transform="translate(-192.192 -74.388)" fill="#243746"/><path d="M111.086,170.646a1.18,1.18,0,0,0-2.014-.834l-.894.894-.894.894-.03.024a.374.374,0,0,1-.5-.554l2.747-2.747a1.18,1.18,0,1,0-1.668-1.668l-2.747,2.747a.372.372,0,0,1-.454.057.365.365,0,0,1-.076-.057.374.374,0,0,1,0-.53l3.689-3.689a1.18,1.18,0,0,0-1.668-1.668l-3.689,3.689a.381.381,0,0,1-.53,0,.374.374,0,0,1,0-.53l3.689-3.689h0l.078-.078a1.18,1.18,0,0,0-1.668-1.668c-1.879,1.878-5.036,5.034-5.08,5.074a3.878,3.878,0,0,1-3.385.916.374.374,0,1,1,.148-.734,3.128,3.128,0,0,0,2.727-.73l.28-.279-1.672-1.672a1.7,1.7,0,0,0-2.406,0L92.889,166a2.29,2.29,0,0,0-.675,1.63v1.161a7.156,7.156,0,0,1-1.853,4.825l8.293,8.293,4.865-3.392a8.572,8.572,0,0,0,1.155-.967l6.067-6.067A1.172,1.172,0,0,0,111.086,170.646Z" transform="translate(-85.79 -149.726)" fill="#243746"/><path d="M0,0H3.66V14.864H0Z" transform="translate(0.517 26.07) rotate(-45)" fill="#243746"/><path d="M151.464,78.054l.363.363,2.623-9.057-1.873-.532a1.7,1.7,0,0,0-2.1,1.171l-2.333,7.921a2.453,2.453,0,0,1,3.318.134Z" transform="translate(-139.247 -64.495)" fill="#243746"/><path d="M155.536,41.526a.374.374,0,0,0,.36-.272,1.7,1.7,0,0,1,2.1-1.171.374.374,0,1,0,.2-.72,2.451,2.451,0,0,0-3.024,1.686.374.374,0,0,0,.36.477Z" transform="translate(-145.737 -37.21)" fill="#243746"/><path d="M128.429,15.631a.374.374,0,0,0,.463-.258,3.935,3.935,0,0,1,4.861-2.711.374.374,0,1,0,.2-.72,4.684,4.684,0,0,0-5.786,3.226.374.374,0,0,0,.258.463Z" transform="translate(-120.755 -11.762)" fill="#243746"/><path d="M373.719,378.6a1.7,1.7,0,0,1-2.1,1.171.374.374,0,1,0-.2.72,2.447,2.447,0,0,0,3.024-1.686.374.374,0,1,0-.72-.2Z" transform="translate(-345.544 -350.881)" fill="#243746"/><path d="M362.743,379.3a.374.374,0,0,0-.462.258,4.552,4.552,0,0,1-5.623,3.135.374.374,0,0,0-.2.72A5.291,5.291,0,0,0,363,379.76a.374.374,0,0,0-.258-.463Z" transform="translate(-331.702 -351.76)" fill="#243746"/><path d="M428.442,290.91a2.5,2.5,0,0,1-1.574-1.575.374.374,0,0,0-.711,0,2.5,2.5,0,0,1-1.574,1.575.374.374,0,0,0,0,.71,2.5,2.5,0,0,1,1.574,1.575.374.374,0,0,0,.711,0,2.5,2.5,0,0,1,1.574-1.575.374.374,0,0,0,0-.71Z" transform="translate(-394.746 -268.311)" fill="#243746"/><ellipse cx="0.8" cy="0.8" rx="0.8" ry="0.8" transform="translate(4.548 2.717)" fill="#243746"/><path d="M31.039,79.658a.374.374,0,0,0,.71,0,2.328,2.328,0,0,1,1.465-1.466.374.374,0,0,0,0-.71,2.328,2.328,0,0,1-1.465-1.466.374.374,0,0,0-.71,0,2.328,2.328,0,0,1-1.465,1.466.374.374,0,0,0,0,.71A2.328,2.328,0,0,1,31.039,79.658Z" transform="translate(-29.318 -70.967)" fill="#243746"/></g></svg>