<svg xmlns="http://www.w3.org/2000/svg" xmlns:xlink="http://www.w3.org/1999/xlink" width="44.95" height="42.724" viewBox="0 0 44.95 42.724"><defs><linearGradient id="a" x1="0.5" x2="0.5" y2="1" gradientUnits="objectBoundingBox"><stop offset="0" stop-color="#0097a7"/><stop offset="1" stop-color="#006d78"/></linearGradient></defs><g opacity="0.8"><g transform="translate(0 0)"><path d="M44.195,31.657,24.027,13.281a2.294,2.294,0,0,0-3.1,0L.755,31.657a2.3,2.3,0,0,0,1.553,4.009H5.529V54.078A1.322,1.322,0,0,0,6.85,55.4H17.9a1.322,1.322,0,0,0,1.322-1.322V42.9h6.5V54.078A1.322,1.322,0,0,0,27.045,55.4H38.1a1.322,1.322,0,0,0,1.322-1.322V35.666h3.222a2.3,2.3,0,0,0,1.552-4.009Z" transform="translate(0 -12.676)" fill="url(#a)"/></g><g transform="translate(33.106 2.118)"><path d="M351.1,42.73h-7.128l8.189,7.446V43.791A1.061,1.061,0,0,0,351.1,42.73Z" transform="translate(-343.973 -42.73)" fill="url(#a)"/></g></g></svg>