<svg xmlns="http://www.w3.org/2000/svg" xmlns:xlink="http://www.w3.org/1999/xlink" width="36.089" height="34.302" viewBox="0 0 36.089 34.302"><defs><linearGradient id="a" x1="0.5" x2="0.5" y2="1" gradientUnits="objectBoundingBox"><stop offset="0" stop-color="#243746"/><stop offset="1" stop-color="#070b0e"/></linearGradient></defs><g opacity="0.8"><g transform="translate(0 0)"><path d="M35.483,27.915,19.291,13.161a1.842,1.842,0,0,0-2.493,0L.606,27.915a1.851,1.851,0,0,0,1.247,3.219H4.439V45.917A1.061,1.061,0,0,0,5.5,46.978h8.875a1.061,1.061,0,0,0,1.061-1.061V36.941h5.216v8.976a1.061,1.061,0,0,0,1.061,1.061h8.875a1.061,1.061,0,0,0,1.061-1.061V31.134h2.587a1.85,1.85,0,0,0,1.246-3.219Z" transform="translate(0 -12.676)" fill="url(#a)"/></g><g transform="translate(24.246 2.118)"><path d="M351.1,42.73h-7.128l8.189,7.446V43.791A1.061,1.061,0,0,0,351.1,42.73Z" transform="translate(-343.973 -42.73)" fill="url(#a)"/></g></g></svg>