<svg xmlns="http://www.w3.org/2000/svg" xmlns:xlink="http://www.w3.org/1999/xlink" width="33.637" height="43.57" viewBox="0 0 33.637 43.57"><defs><linearGradient id="a" x1="0.5" x2="0.5" y2="1" gradientUnits="objectBoundingBox"><stop offset="0" stop-color="#0097a7"/><stop offset="1" stop-color="#006d78"/></linearGradient></defs><g transform="translate(-52 -3)" opacity="0.8"><g transform="translate(52 3)"><path d="M97.813,0c-7.5,0-13.6,5.716-13.6,12.742v7.277a.345.345,0,0,1-.194.249c-.736.23-1.333.429-1.88.626a1.768,1.768,0,0,0-1.144,1.575V39.19a1.779,1.779,0,0,0,1.137,1.576,44.91,44.91,0,0,0,15.682,2.8,44.912,44.912,0,0,0,15.683-2.8,1.779,1.779,0,0,0,1.136-1.576V22.469a1.768,1.768,0,0,0-1.144-1.575c-.547-.2-1.144-.4-1.879-.626a.345.345,0,0,1-.194-.249V12.742C111.413,5.716,105.312,0,97.813,0Zm-3.7,27.561a3.712,3.712,0,0,1,7.408,0A3.391,3.391,0,0,1,99.665,30.5v5.737a1.856,1.856,0,0,1-3.7,0V30.5A3.392,3.392,0,0,1,94.108,27.561Zm12.629-14.82V19.02a45.257,45.257,0,0,0-17.849,0V12.742c0-4.61,4-8.36,8.924-8.36S106.737,8.131,106.737,12.742Z" transform="translate(-80.994)" fill="url(#a)"/></g></g></svg>