<svg xmlns="http://www.w3.org/2000/svg" width="27.138" height="35.151" viewBox="0 0 27.138 35.151"><g transform="translate(-52 -3)" opacity="0.8"><g transform="translate(52 3)"><path d="M94.563,0C88.513,0,83.59,4.611,83.59,10.28v5.871a.278.278,0,0,1-.157.2c-.593.185-1.075.346-1.516.505a1.426,1.426,0,0,0-.923,1.271v13.49a1.435,1.435,0,0,0,.917,1.271,36.232,36.232,0,0,0,12.652,2.263,36.234,36.234,0,0,0,12.652-2.263,1.435,1.435,0,0,0,.917-1.271V18.127a1.427,1.427,0,0,0-.923-1.271c-.441-.159-.923-.32-1.516-.505a.279.279,0,0,1-.157-.2V10.28C105.536,4.611,100.614,0,94.563,0ZM91.574,22.236a2.995,2.995,0,0,1,5.977,0,2.736,2.736,0,0,1-1.494,2.371v4.629a1.5,1.5,0,0,1-2.989,0V24.606A2.736,2.736,0,0,1,91.574,22.236ZM101.763,10.28v5.066a36.512,36.512,0,0,0-14.4,0V10.28a7.215,7.215,0,0,1,14.4,0Z" transform="translate(-80.994)" fill="#243746"/></g></g></svg>