<svg xmlns="http://www.w3.org/2000/svg" width="38.978" height="50.488" viewBox="0 0 38.978 50.488"><g transform="translate(-52 -3)" opacity="0.998"><g transform="translate(52 3)"><path d="M100.483,0c-8.69,0-15.76,6.623-15.76,14.765V23.2a.4.4,0,0,1-.225.288c-.852.266-1.544.5-2.178.726a2.049,2.049,0,0,0-1.326,1.825V45.412a2.062,2.062,0,0,0,1.317,1.826,52.04,52.04,0,0,0,18.172,3.25,52.043,52.043,0,0,0,18.173-3.25,2.061,2.061,0,0,0,1.316-1.826V26.036a2.049,2.049,0,0,0-1.326-1.825c-.634-.229-1.326-.46-2.178-.726a.4.4,0,0,1-.225-.288V14.765C116.243,6.623,109.174,0,100.483,0ZM96.191,31.938a4.3,4.3,0,0,1,8.585,0,3.93,3.93,0,0,1-2.146,3.4v6.648a2.151,2.151,0,0,1-4.292,0V35.342A3.93,3.93,0,0,1,96.191,31.938Zm14.634-17.173V22.04a52.443,52.443,0,0,0-20.683,0V14.765c0-5.342,4.639-9.688,10.341-9.688S110.825,9.423,110.825,14.765Z" transform="translate(-80.994)" fill="#e5e5e5"/></g></g></svg>