<svg xmlns="http://www.w3.org/2000/svg" width="56.896" height="41.772" viewBox="0 0 56.896 41.772"><g opacity="0.998"><path d="M22.033,25.322a2.224,2.224,0,0,1-2.22-2.22v-2.22h2.22c3.539,0,4.44-1.2,4.44-1.2V23.1a2.224,2.224,0,0,1-2.22,2.22Z" transform="translate(24.177 16.45)" fill="#e5e5e5"/><path d="M5.033,25.322a2.224,2.224,0,0,1-2.22-2.22V19.678s.9,1.2,4.44,1.2h2.22V23.1a2.224,2.224,0,0,1-2.22,2.22Z" transform="translate(3.433 16.45)" fill="#e5e5e5"/><g transform="translate(0 13.324)"><path d="M56.9,14.542a5.125,5.125,0,0,0-9.931-1.792l-2.436,5.455a55.512,55.512,0,0,0-15.944-2.427,58.475,58.475,0,0,0-16.239,2.44L10.04,13.1a5.122,5.122,0,1,0-6.268,6.372l.95,8.168c1,3.466,5.964,3.552,5.964,3.552H46.21s4.96-.087,5.964-3.557l.95-8.168A5.121,5.121,0,0,0,56.9,14.542Z" transform="translate(0 -9.407)" fill="#e5e5e5"/></g><path d="M2.694,14.065a7.833,7.833,0,0,1,7.4,5.413l1.123,2.5c2.174-.784,9.989-1.539,14.927-1.539,4.8,0,12.507.7,14.638,1.479l1.277-2.862a7.827,7.827,0,0,1,7.26-4.989c.235,0,.46.049.693.069,0-.013,0-.029,0-.042A10.685,10.685,0,0,0,39.33,3.406H12.687A10.685,10.685,0,0,0,2,14.092c0,.013,0,.029,0,.042C2.234,14.116,2.458,14.065,2.694,14.065Z" transform="translate(2.442 -3.406)" fill="#e5e5e5"/></g></svg>