<svg xmlns="http://www.w3.org/2000/svg" xmlns:xlink="http://www.w3.org/1999/xlink" width="49.823" height="36.579" viewBox="0 0 49.823 36.579"><defs><linearGradient id="a" x1="-1.886" y1="-5.097" x2="-1.886" y2="0.5" gradientUnits="objectBoundingBox"><stop offset="0" stop-color="#0097a7"/><stop offset="1" stop-color="#006d78"/></linearGradient></defs><g opacity="0.8"><path d="M21.757,24.62a1.947,1.947,0,0,1-1.944-1.944V20.732h1.944c3.1,0,3.888-1.054,3.888-1.054v3A1.947,1.947,0,0,1,23.7,24.62Z" transform="translate(18.708 11.959)" fill="url(#a)"/><path d="M4.757,24.62a1.947,1.947,0,0,1-1.944-1.944v-3S3.6,20.732,6.7,20.732H8.646v1.944A1.947,1.947,0,0,1,6.7,24.62Z" transform="translate(2.656 11.959)" fill="url(#a)"/><g transform="translate(0 11.667)"><path d="M49.823,13.9a4.488,4.488,0,0,0-8.7-1.569l-2.133,4.777a48.611,48.611,0,0,0-13.962-2.125,51.205,51.205,0,0,0-14.22,2.137l-2.02-4.481A4.485,4.485,0,1,0,3.3,18.222l.832,7.153c.879,3.035,5.222,3.111,5.222,3.111H40.465s4.343-.076,5.222-3.115l.832-7.153A4.485,4.485,0,0,0,49.823,13.9Z" transform="translate(0 -9.407)" fill="url(#a)"/></g><path d="M2.608,12.74A6.859,6.859,0,0,1,9.09,17.48l.984,2.187c1.9-.686,8.747-1.347,13.071-1.347,4.205,0,10.952.614,12.818,1.295l1.118-2.506a6.854,6.854,0,0,1,6.358-4.369c.206,0,.4.043.607.06,0-.012,0-.025,0-.037A9.357,9.357,0,0,0,34.69,3.406H11.359A9.357,9.357,0,0,0,2,12.764c0,.012,0,.025,0,.037C2.205,12.785,2.4,12.74,2.608,12.74Z" transform="translate(1.889 -3.406)" fill="url(#a)"/></g></svg>