<svg xmlns="http://www.w3.org/2000/svg" width="346.681" height="294.262" viewBox="0 0 346.681 294.262"><g transform="translate(-49.278 -75.74)"><path d="M110.309,114.616c27.06-36.907,79.253-50.747,123.94-27.4,24.444,12.738,41.245,36.494,66.17,48.612,28.093,13.633,59.9,25.2,79.735,50.609,21.07,26.992,25.545,65.275,12.394,96.742-15.975,38.284-58.183,44.205-95.228,57.426-151.689,53.983-301.244-5.164-204.5-182.33C100.876,143.467,101.358,126.8,110.309,114.616Z" transform="translate(-4.003)" fill="#455a64" opacity="0.85"/><g transform="translate(49.278 104.189)"><g transform="translate(45.46 110.543)"><g transform="translate(28.437)"><g transform="translate(0 110.927)"><path d="M187.183,438.7,169.9,439.733l2.135,21.07,17.007-1.446Z" transform="translate(-160.742 -438.7)" fill="#facbb6"/><g transform="translate(0 0.413)"><path d="M171.682,439.3s2.066,7.781-1.171,12.394c-2,2.754-.344,10.6-.344,10.6s-2.617,11.155-5.646,10.4c-.62-.138-1.721-33.051-1.721-33.051Z" transform="translate(-158.531 -439.3)" fill="#01384f"/><path d="M160.8,439.7l-4.2.207,2.41,33.4,3.512-.551Z" transform="translate(-156.6 -439.425)" fill="#01384f"/><path d="M165.2,487.7" transform="translate(-159.278 -454.374)" fill="none" stroke="#535e5f" stroke-linecap="round" stroke-miterlimit="10" stroke-width="0.303"/><path d="M162.7,439.7" transform="translate(-158.5 -439.425)" fill="none" stroke="#535e5f" stroke-linecap="round" stroke-miterlimit="10" stroke-width="0.303"/><path d="M169.564,476.113s-.138-1.515-2.479-1.653c-2.2-.138-2.685-2.961-2.685-2.961" transform="translate(-159.029 -449.328)" fill="none" stroke="#535e5f" stroke-linecap="round" stroke-miterlimit="10" stroke-width="0.303"/><path d="M163.5,451.7" transform="translate(-158.749 -443.162)" fill="none" stroke="#535e5f" stroke-linecap="round" stroke-miterlimit="10" stroke-width="0.303"/><path d="M173.6,439.4" transform="translate(-161.895 -439.331)" fill="none" stroke="#535e5f" stroke-linecap="round" stroke-miterlimit="10" stroke-width="0.303"/><g transform="translate(11.017 19.813)"><path d="M172.738,469.469s3.167-2.548,4.338-.757c1.721,2.754-2.754,1.721-4.062,1.377a.067.067,0,0,0-.069.069c.9.551,3.374,2.272,2.41,3.374-1.171,1.308-2.754-3.03-2.754-3.03" transform="translate(-172.6 -468.074)" fill="none" stroke="#535e5f" stroke-miterlimit="10" stroke-width="0.303"/></g></g></g><path d="M246.842,277.6l46.615,107.966c3.305,7.643,3.718,22.1-3.443,24.513-10.6,3.512-101.08,3.03-101.08,3.03L186.8,387.769l65.688-4.82S217.3,307.277,227.632,279.6Z" transform="translate(-166.006 -277.6)" fill="#032f3f"/><path d="M282.2,430.6s7.918,2.548,8.469,3.236" transform="translate(-195.717 -325.251)" fill="none" stroke="#1f2022" stroke-linecap="round" stroke-miterlimit="10" stroke-width="0.481"/></g><g transform="translate(0 1.721)"><g transform="translate(0 120.085)"><path d="M145.883,455.907,128.6,455.7l.551,21.139,17.145-.207Z" transform="translate(-119.442 -454.874)" fill="#facbb6"/><path d="M129.992,455.044s1.515,7.918-2.066,12.256c-2.135,2.617-1.1,10.535-1.1,10.535s-3.443,10.948-6.4,9.984c-.62-.207.62-33.12.62-33.12Z" transform="translate(-116.841 -454.562)" fill="#01384f"/><path d="M119.5,454.569l-4.2-.069.069,33.464,3.512-.275Z" transform="translate(-115.3 -454.5)" fill="#01384f"/><path d="M120.5,502.7" transform="translate(-116.92 -469.512)" fill="none" stroke="#535e5f" stroke-linecap="round" stroke-miterlimit="10" stroke-width="0.303"/><path d="M121.4,454.6" transform="translate(-117.2 -454.531)" fill="none" stroke="#535e5f" stroke-linecap="round" stroke-miterlimit="10" stroke-width="0.303"/><path d="M120.8,486.4" transform="translate(-117.013 -464.435)" fill="none" stroke="#535e5f" stroke-linecap="round" stroke-miterlimit="10" stroke-width="0.303"/><path d="M127.9,493.7" transform="translate(-119.224 -466.709)" fill="none" stroke="#535e5f" stroke-linecap="round" stroke-miterlimit="10" stroke-width="0.303"/><path d="M121.3,466.7" transform="translate(-117.169 -458.3)" fill="none" stroke="#535e5f" stroke-linecap="round" stroke-miterlimit="10" stroke-width="0.303"/><path d="M132.3,455.2" transform="translate(-120.595 -454.718)" fill="none" stroke="#535e5f" stroke-linecap="round" stroke-miterlimit="10" stroke-width="0.303"/></g><path d="M223.086,280.1C236.1,383.728,233.345,382.9,234.1,395.571c.826,14.184-3.512,27.06-13.083,27.473-14.115.62-50.747,1.377-73.194,1.377L147,399.427l51.366-1.446s-6.61-50.54-9.64-62.8c-4.269-17.076,4.407-52.468,4.407-52.468Z" transform="translate(-125.173 -280.1)" fill="#01384f"/></g></g><g transform="translate(119.555)"><path d="M236.015,117.431c-2.892.9-11.568,4.476-12.119,13.5-.482,6.886,22.447,8.538,22.447,8.538,1.928,3.718,6.335,2,7.505-1.859a14.411,14.411,0,0,0,.413-8.332C251.577,116.191,238.907,116.536,236.015,117.431Z" transform="translate(-223.214 -117.057)" fill="#01384f"/><path d="M231,124.065a14.678,14.678,0,0,1,17.145-5.646,5.957,5.957,0,0,1,1.171.482c12.532,5.508,13.427,21.07,5.233,29.47a7.2,7.2,0,1,1-9.984,6.61,8.477,8.477,0,0,1,.138-1.377c-.138,0-.207.069-.344.069Z" transform="translate(-225.429 -117.219)" fill="#01384f"/><g transform="translate(0 6.231)"><path d="M223.247,138.5a14.053,14.053,0,0,1,12.463-12.325,11.125,11.125,0,0,1,6.059,1.033c4.751,2.341,6.4,9.5,7.023,15.011l-.413,6.817.62,28.231c-4.2,17.558-18.04,16.939-18.109-4.613l.207-14.115C222.7,156.192,222.352,145.795,223.247,138.5Z" transform="translate(-222.909 -126.106)" fill="#facbb6"/><path d="M234.669,172.2s3.925,1.377,9.364-2.2c0,0-3.1,6.266-9.433,8.469Z" transform="translate(-226.55 -139.777)" fill="#eec0ae"/><g transform="translate(17.483 30.223)"><path d="M248.3,170" transform="translate(-248.3 -170)" fill="#facbb6"/></g><g transform="translate(8.119 32.427)"><path d="M234.7,173.2" transform="translate(-234.7 -173.2)" fill="#facbb6"/></g><g transform="translate(26.297 15.006)"><path d="M261.1,147.9" transform="translate(-261.1 -147.9)" fill="none" stroke="#cd7a76" stroke-linecap="round" stroke-miterlimit="10" stroke-width="0.477"/></g><g transform="translate(3.643 20.652)"><path d="M228.2,156.1" transform="translate(-228.2 -156.1)" fill="none"/></g><g transform="translate(13.214 20.239)"><path d="M242.1,155.5" transform="translate(-242.1 -155.5)" fill="none"/></g><g transform="translate(7.844 16.521)"><path d="M234.3,150.1" transform="translate(-234.3 -150.1)" fill="none"/></g><g transform="translate(8.394 10.806)"><path d="M235.1,141.8" transform="translate(-235.1 -141.8)" fill="none"/></g><g transform="translate(16.864 13.216)"><path d="M247.4,145.3" transform="translate(-247.4 -145.3)" fill="none"/></g><g transform="translate(13.283 15.695)"><path d="M242.2,148.9" transform="translate(-242.2 -148.9)" fill="none"/></g></g><path d="M248.606,124.193l.413,12.463c-.551.275-6.541.62-8.951-11.705,0,0-4.613,3.305-15.768,7.436,0-.207,3.1-10.328,12.256-10.81S248.606,124.193,248.606,124.193Z" transform="translate(-223.342 -118.449)" fill="#01384f"/></g><g transform="translate(0 12.006)"><g transform="translate(236.879)"><path d="M409.894,140.9c4.269-6.059,4.338-5.646,4.269-6.059-.138-1.033-6.059,5.026-6.059,5.026s3.443-4.407,3.03-5.3-7.918,6.679-7.918,6.679a5.868,5.868,0,0,0-1.377-4.131,1.246,1.246,0,0,0-1.515-.069c1.239,2.685-.9,8.814-.9,8.814l-6.128,9.227,1.239,2.066c1.033,1.721,2,3.443,2.961,5.164l7.436-10.742s9.571-9.571,9.984-10.535c.344-.964-3.787,2.066-3.787,2.066s3.374-3.649,3.856-5.164C415.265,136.908,409.894,140.9,409.894,140.9Z" transform="translate(-393.3 -134.493)" fill="#facbb6"/></g><g transform="translate(0 51.647)"><path d="M68.573,216.523s-5.922-4.062-6.266-7.023c-.413,0-1.171.275-1.239.826a5.844,5.844,0,0,0,.9,4.269s-10.328-2.754-10.191-1.721c.069,1.033,5.3,3.03,5.3,3.03s-8.194-2.2-7.781-1.239c.138.344,0,0,6.817,3.03,0,0-6.679-.689-5.715.138,1.171,1.033,5.922,2.479,5.922,2.479s-5.164-.482-4.338.138,13.909,3.994,13.909,3.994l22.447,10.191,3.649-8.469Z" transform="translate(-49.278 -209.5)" fill="#facbb6"/></g><g transform="translate(17.849 11.435)"><path d="M300.359,151.1s-15.561,26.165-42.277,28.575c-12.807,1.171-31.261.344-40.212,0h0L186.2,177.541h0a26.334,26.334,0,0,0-16.594,3.512c-9.089,5.44-25.408,16.594-38.353,21.9-23.273,9.5-54.947-4.2-54.947-4.2l-1.1,7.368c19,11.637,31.743,16.939,54.947,13.771,11.912-1.653,38.972-15.7,41.313-17.007l-1.928,46.615,43.31,1.171,1.653-46.2c5.577-1.653,33.877-4.889,43.517-6.748,22.172-4.2,40.143-27.336,49.025-43.792Z" transform="translate(-75.2 -151.1)" fill="#facbb6"/></g></g><path d="M231.618,190.576a9.065,9.065,0,0,1-9.3,4.82c-11.155-1.1-9.02-6.335-9.02-6.335s-8.4-2.41-20.175,6.266A167.735,167.735,0,0,1,167.1,210.751l4.751,20.175,23.824-8.4-2.548,53.5s17.971-3.236,34.5-3.167c14.529.069,21.69-2.272,21.69-2.272l-3.787-53.914,27.887-1.446,1.446-23.48C274.859,191.677,243.737,186.858,231.618,190.576Z" transform="translate(-85.973 -139.386)" fill="#ebebeb"/><g transform="translate(126.71 15.935)"><path d="M233.3,140.2" transform="translate(-233.3 -140.2)" fill="none" stroke="#6c4a18" stroke-linecap="round" stroke-miterlimit="10" stroke-width="0.643"/><path d="M260,143.1" transform="translate(-241.615 -141.103)" fill="none" stroke="#6c4a18" stroke-linecap="round" stroke-miterlimit="10" stroke-width="0.643"/><path d="M251.9,145.4" transform="translate(-239.093 -141.819)" fill="none" stroke="#6c4a18" stroke-linecap="round" stroke-miterlimit="10" stroke-width="0.643"/></g></g><g transform="translate(153.128 217.831)"><g transform="translate(83.178)"><path d="M429.279,291.941V417.534a6.538,6.538,0,0,1-6.541,6.541h-95.3a6.538,6.538,0,0,1-6.541-6.541V291.941a6.538,6.538,0,0,1,6.541-6.541h95.3A6.538,6.538,0,0,1,429.279,291.941Z" transform="translate(-320.9 -283.128)" fill="#bbbdbe"/><path d="M429.279,288.779v128a6.613,6.613,0,0,1-6.541,6.679h-95.3a6.569,6.569,0,0,1-6.541-6.679v-128a6.613,6.613,0,0,1,6.541-6.679h95.3A6.613,6.613,0,0,1,429.279,288.779Z" transform="translate(-320.9 -282.1)" fill="#e6e7e7"/><path d="M429.279,288.741v25.2H320.9v-25.2a6.538,6.538,0,0,1,6.541-6.541h95.3A6.452,6.452,0,0,1,429.279,288.741Z" transform="translate(-320.9 -282.131)" fill="#bbbdbe"/><rect width="108.379" height="2.685" transform="translate(0 31.811)" fill="#cfd1d3"/><circle cx="30.297" cy="30.297" r="30.297" transform="matrix(0.223, -0.975, 0.975, 0.223, 17.895, 103.188)" fill="#fff"/><path d="M412.083,388.591a22.792,22.792,0,0,1-43.379,9.777,22.142,22.142,0,0,1-2.2-9.777,22.8,22.8,0,0,1,44.412-7.23A23.375,23.375,0,0,1,412.083,388.591Z" transform="translate(-335.102 -308.168)" fill="#c6e3f2"/><circle cx="17.214" cy="17.214" r="17.214" transform="translate(36.976 63.21)" fill="#cdeafb"/><rect width="27.336" height="15.493" transform="translate(66.997 7.712)" fill="#01384f"/><path d="M445.536,293.3v10.4L418.2,293.3Z" transform="translate(-351.203 -285.588)" fill="#01384f"/><path d="M413.079,395.661a22.792,22.792,0,0,1-43.379,9.777s5.233-14.735,18.316-9.777c12.738,4.82,20.381-3.443,23.893-7.161A22.622,22.622,0,0,1,413.079,395.661Z" transform="translate(-336.098 -315.237)" fill="#2a94f4"/><path d="M431.6,404.934h-.207A10.168,10.168,0,0,1,421.2,394.743v-1.653A10.168,10.168,0,0,1,431.391,382.9h.207Z" transform="translate(-352.138 -313.493)" fill="#fff"/><path d="M470.95,288.71v127.8a6.538,6.538,0,0,1-6.541,6.541H454.7V282.1h9.709A6.553,6.553,0,0,1,470.95,288.71Z" transform="translate(-362.571 -282.1)" fill="#e6e7e7"/><rect width="15.424" height="0.689" transform="matrix(0.838, -0.546, 0.546, 0.838, 43.966, 79.346)" fill="#fff"/><rect width="15.424" height="0.689" transform="matrix(0.838, -0.545, 0.545, 0.838, 49.455, 79.31)" fill="#fff"/><rect width="15.424" height="0.689" transform="matrix(0.838, -0.545, 0.545, 0.838, 46.839, 86.119)" fill="#fff"/><path d="M361.395,303.968H332.2v-4.682a2.646,2.646,0,0,1,2.685-2.685h23.824a2.646,2.646,0,0,1,2.685,2.685Z" transform="translate(-324.419 -286.616)" fill="#fff"/><path d="M361.395,307.3H332.2v1.377a2.646,2.646,0,0,0,2.685,2.685h23.824a2.646,2.646,0,0,0,2.685-2.685Z" transform="translate(-324.419 -289.948)" fill="#e6e7e7"/><path d="M400.845,301.972a6.472,6.472,0,1,1-6.472-6.472A6.465,6.465,0,0,1,400.845,301.972Z" transform="translate(-341.767 -286.273)" fill="#e8e9eb"/><path d="M399.864,302.782a4.682,4.682,0,1,1-4.682-4.682A4.732,4.732,0,0,1,399.864,302.782Z" transform="translate(-342.576 -287.083)" fill="#cfd1d3"/><circle cx="1.653" cy="1.653" r="1.653" transform="translate(98.12 9.915)" fill="#004970"/><circle cx="1.653" cy="1.653" r="1.653" transform="translate(98.12 14.804)" fill="#004970"/><rect width="0.689" height="8.263" transform="translate(52.262 9.64)" fill="#cfd1d3"/><g transform="translate(43.999 7.23)"><rect width="0.482" height="1.515" transform="translate(8.4 15.768)" fill="#563b4b"/><rect width="0.482" height="1.171" transform="translate(8.4)" fill="#563b4b"/><rect width="1.377" height="0.482" transform="translate(0 8.4)" fill="#563b4b"/><rect width="1.377" height="0.482" transform="translate(15.906 8.4)" fill="#563b4b"/><rect width="1.446" height="0.482" transform="translate(2.315 14.579) rotate(-45)" fill="#563b4b"/><rect width="1.239" height="0.482" transform="translate(13.651 3.265) rotate(-45)" fill="#563b4b"/><rect width="0.482" height="1.239" transform="translate(2.353 2.666) rotate(-45)" fill="#563b4b"/><rect width="0.482" height="1.446" transform="translate(13.521 13.856) rotate(-45)" fill="#563b4b"/><rect width="1.377" height="0.482" transform="translate(0.52 11.64) rotate(-21.814)" fill="#563b4b"/><rect width="1.308" height="0.482" transform="translate(15.306 5.678) rotate(-21.778)" fill="#563b4b"/><rect width="0.482" height="1.239" transform="translate(5.182 0.761) rotate(-21.832)" fill="#563b4b"/><rect width="0.482" height="1.515" transform="matrix(0.929, -0.371, 0.371, 0.929, 11.04, 15.37)" fill="#563b4b"/><rect width="0.482" height="1.308" transform="matrix(0.382, -0.924, 0.924, 0.382, 0.567, 5.536)" fill="#563b4b"/><rect width="0.482" height="1.377" transform="translate(15.184 11.584) rotate(-67.605)" fill="#563b4b"/><rect width="1.239" height="0.482" transform="matrix(0.382, -0.924, 0.924, 0.382, 11.271, 1.683)" fill="#563b4b"/><rect width="1.515" height="0.482" transform="translate(5.109 16.494) rotate(-67.641)" fill="#563b4b"/></g></g><path d="M219.582,416.6c-.069-3.167-.964-6.266-1.377-9.433s-.344-6.541,1.377-9.3a15.988,15.988,0,0,1,4.2-4.131c3.925-3.1,7.85-6.2,11.705-9.3a5.236,5.236,0,0,1,2.479-1.377A4.266,4.266,0,0,1,242.1,385a12.618,12.618,0,0,1,1.721,4.476,125.507,125.507,0,0,0,8.745,23c-8.125.275-16.25.551-24.375.9-3.167.138-6.748.482-8.469,3.1a4.936,4.936,0,0,1,0-3.443Z" transform="translate(-205.673 -313.524)" fill="#6a9bc7"/><g transform="translate(0 92.842)"><path d="M290.148,470.806c.138,0,.207.069.344.069-.413-3.167-.826-6.4-.964-9.64-.207-4.889-.275-9.984-2-14.735-.138,0-.275.069-.413.069a5.837,5.837,0,0,0-2.272,1.1,6.6,6.6,0,0,0-4.131.964,4.536,4.536,0,0,0-1.653,1.79,9.4,9.4,0,0,0-1.308.138,5.157,5.157,0,0,0-3.994,4.544C272.658,463.232,282.023,469.291,290.148,470.806Z" transform="translate(-223.013 -426.143)" fill="#1f3c8f"/><path d="M200.1,432.172l77.05-1.859,33.326-4.613-11.292,42.071H224.062Z" transform="translate(-200.1 -419.665)" fill="#f3c600"/><path d="M258,423.18s27.542-9.158,45.651-3.994c18.109,5.233,19.417,12.325,19.417,12.325l-5.853,15.011L264.128,451.2Z" transform="translate(-218.132 -417.144)" fill="#bbbdbe"/><path d="M212.1,427.239s19.624-15.906,39.179-8.194,15.217,15.7,15.217,15.7Z" transform="translate(-203.837 -416.935)" fill="#cdeafb"/><path d="M244.094,439.813s13.5-10.122,41.313-5.3S312.261,445.6,298.834,445.6C285.408,445.528,232.871,448.627,244.094,439.813Z" transform="translate(-213.316 -422.004)" fill="#e6e7e7"/><path d="M248.6,452.276s4.407-12.532,20.519-7.85a333.532,333.532,0,0,1,34.153,12.463v3.03s-28.782-11.912-37.389-5.715S248.944,456.889,248.6,452.276Z" transform="translate(-215.205 -425.171)" fill="#fff"/><path d="M248.6,460.831s29.539-17.145,43.655-14.46c14.047,2.685,28.437,9.02,26.716,10.466s6.2,17.7-4.613,17.283-63.416-2.754-63.416-2.754Z" transform="translate(-215.205 -426.014)" fill="#2a94f4"/><path d="M237.9,472.484l-28.093-2.272a7.448,7.448,0,0,1-6.4-5.371l-3.305-38.9,24.168-.138Z" transform="translate(-200.1 -419.696)" fill="#ebbc80"/><path d="M235.3,425.669l6.472,40.694a7.305,7.305,0,0,0,7.161,5.99H309.32a7.22,7.22,0,0,0,7.023-5.508l5.1-41.245H235.3Zm17.834,37.182a1.412,1.412,0,0,1-1.446,1.446h-.62a1.412,1.412,0,0,1-1.446-1.446v-27.4A1.412,1.412,0,0,1,251.068,434h.62a1.412,1.412,0,0,1,1.446,1.446Zm11.223,0a1.412,1.412,0,0,1-1.446,1.446h-.62a1.412,1.412,0,0,1-1.446-1.446v-27.4A1.412,1.412,0,0,1,262.291,434h.62a1.412,1.412,0,0,1,1.446,1.446Zm11.155,0a1.412,1.412,0,0,1-1.446,1.446h-.62A1.412,1.412,0,0,1,272,462.851v-27.4A1.412,1.412,0,0,1,273.446,434h.62a1.412,1.412,0,0,1,1.446,1.446Zm11.155,0a1.412,1.412,0,0,1-1.446,1.446h-.62a1.412,1.412,0,0,1-1.446-1.446v-27.4A1.412,1.412,0,0,1,284.6,434h.62a1.412,1.412,0,0,1,1.446,1.446Zm11.223,0a1.412,1.412,0,0,1-1.446,1.446h-.62a1.412,1.412,0,0,1-1.446-1.446v-27.4A1.412,1.412,0,0,1,295.824,434h.62a1.412,1.412,0,0,1,1.446,1.446Zm11.155,0A1.412,1.412,0,0,1,307.6,464.3h-.62a1.412,1.412,0,0,1-1.446-1.446v-27.4A1.412,1.412,0,0,1,306.979,434h.62a1.412,1.412,0,0,1,1.446,1.446Z" transform="translate(-211.063 -419.634)" fill="#6e957d"/><path d="M295.922,425.225s-3.649,2.066-6.748,8.332a34,34,0,0,0-3.374,12.119l15.011.62s3.167-19.624,11.017-21C302.394,422.815,295.922,425.225,295.922,425.225Z" transform="translate(-226.791 -419.19)" fill="#fff"/></g></g><g transform="translate(257.427 165.638)"><g transform="translate(18.196)"><rect width="7.712" height="2.135" transform="translate(5.922 3.787)" fill="#54af77"/><path d="M413.561,230.67l-14.253-14.253a8.548,8.548,0,0,0-5.784-2.479l-8.469-.138a6.811,6.811,0,0,0-6.954,6.817v34.221a6.068,6.068,0,0,0,6.059,6.059h26.234a6.135,6.135,0,0,0,5.853-4.407,5.869,5.869,0,0,0,.207-1.584V237.624A10.141,10.141,0,0,0,413.561,230.67Zm-17.214-8.4c0-.275.344-.413.482-.207l10.948,10.948a.273.273,0,0,1-.207.482H396.622a.3.3,0,0,1-.275-.275Z" transform="translate(-378.031 -208.636)" fill="#54af77"/><rect width="10.948" height="3.787" transform="translate(4.338)" fill="#464747"/><rect width="1.171" height="3.787" transform="translate(4.338)" fill="#221e20"/><rect width="1.171" height="3.787" transform="translate(6.817)" fill="#221e20"/><rect width="1.171" height="3.787" transform="translate(9.296)" fill="#221e20"/><rect width="1.171" height="3.787" transform="translate(11.843)" fill="#221e20"/><rect width="1.171" height="3.787" transform="translate(14.322)" fill="#221e20"/><path d="M392.207,233.8h0a4.438,4.438,0,0,1,4.407,4.407v5.44h9.02a4.438,4.438,0,0,1,4.407,4.407v5.44a4.438,4.438,0,0,1-4.407,4.407H392.207a4.438,4.438,0,0,1-4.407-4.407V238.207A4.393,4.393,0,0,1,392.207,233.8Z" transform="translate(-381.052 -214.865)" fill="#fff"/><path d="M416.146,256.515a6.011,6.011,0,0,1-5.853,4.407H384.059A6.068,6.068,0,0,1,378,254.863V220.641a6.816,6.816,0,0,1,4.889-6.541v34.7a7.67,7.67,0,0,0,7.643,7.643h25.614Z" transform="translate(-378 -208.729)" fill="#ebbc80"/><path d="M410.153,255.426a5.026,5.026,0,1,1-5.026-5.026A5.055,5.055,0,0,1,410.153,255.426Z" transform="translate(-384.883 -220.035)" fill="#cdeafb"/><path d="M401.646,260.423a2.823,2.823,0,1,1-2.823-2.823A2.881,2.881,0,0,1,401.646,260.423Z" transform="translate(-383.606 -222.277)" fill="#cdeafb"/><circle cx="2.272" cy="2.272" r="2.272" transform="translate(8.745 29.677)" fill="#cdeafb"/><path d="M398.08,245.19a1.79,1.79,0,1,1-1.79-1.79A1.778,1.778,0,0,1,398.08,245.19Z" transform="translate(-383.139 -217.854)" fill="#cdeafb"/><path d="M392.9,241.5a1.1,1.1,0,1,1-1.1-1.1A1.088,1.088,0,0,1,392.9,241.5Z" transform="translate(-381.955 -216.92)" fill="#cdeafb"/></g><g transform="translate(0 3.429)"><path d="M377.355,226.61a.414.414,0,0,1-.275-.069l-7.987-2.41a.98.98,0,1,1,.62-1.859l7.987,2.41a.949.949,0,0,1,.62,1.239A1.036,1.036,0,0,1,377.355,226.61Z" transform="translate(-356.818 -214.685)" fill="#2c3b8d"/><rect width="5.371" height="4.958" transform="translate(12.279 14.359) rotate(179.633)" fill="#cdeafb"/><rect width="3.581" height="3.649" transform="translate(26.361 3.649) rotate(179.633)" fill="#a0d6e5"/><path d="M351.6,248.657l.069,14.873a3.086,3.086,0,0,0,3.1,3.1l13.289-.069a3.086,3.086,0,0,0,3.1-3.1l-.069-15.011a17.1,17.1,0,0,0-2.135-8.194l-4.476-8.056-6.472.069L353.6,240.6A16.827,16.827,0,0,0,351.6,248.657Z" transform="translate(-351.582 -217.796)" fill="#e6e7e7"/><path d="M355.9,248.557l.069,14.873a3.086,3.086,0,0,0,3.1,3.1l10.328-.069a3.086,3.086,0,0,0,3.1-3.1l-.069-15.011a17.1,17.1,0,0,0-2.135-8.194l-4.476-8.056H362.3l-4.407,8.332A17.714,17.714,0,0,0,355.9,248.557Z" transform="translate(-352.922 -217.764)" fill="#f0f1f1"/><rect width="19.417" height="10.81" transform="translate(19.486 39.613) rotate(179.634)" fill="#c6e1ef"/><rect width="16.457" height="10.81" transform="translate(19.557 39.602) rotate(179.634)" fill="#cdeafb"/><path d="M375.245,211.3l-8.056.069a14.117,14.117,0,0,0-9.709,3.925l-2.617,2.548a1.729,1.729,0,0,0,1.171,2.961l9.364-.069s1.79-5.853,9.915-5.715Z" transform="translate(-352.436 -211.286)" fill="#1f3c8f"/></g><g transform="translate(39.403 9.502)"><path d="M415.135,229.8,408.8,257.273h35.461L438.339,229.8Z" transform="translate(-408.8 -223.121)" fill="#6a9bc7"/><path d="M0,0H23.2V6.679H0Z" transform="translate(6.335)" fill="#6a9bc7"/><rect width="35.461" height="8.469" transform="translate(0 34.152)" fill="#6a9bc7"/><rect width="2.272" height="6.679" transform="translate(6.335)" fill="#cdeafb"/><rect width="2.272" height="8.469" transform="translate(0 34.152)" fill="#cdeafb"/><path d="M417.407,229.8l-6.335,27.473H408.8l6.335-27.473Z" transform="translate(-408.8 -223.121)" fill="#cdeafb"/><path d="M439.379,251.426a2.475,2.475,0,0,0-.757.138,2.2,2.2,0,0,0-1.859-.964,2.258,2.258,0,0,0-1.928,1.1h-.275a1.859,1.859,0,1,0,0,3.718h.207a2.11,2.11,0,0,0,3.925.207,2.447,2.447,0,0,0,.689.138,2.169,2.169,0,0,0,0-4.338Z" transform="translate(-416.243 -229.599)" fill="#cdeafb"/><path d="M431.9,241.9a1.727,1.727,0,0,1-3.443,0H424.6v2l2.272.757v5.784h6.679v-5.784l2.272-.757v-2Z" transform="translate(-413.721 -226.889)" fill="#fff"/><path d="M431.679,251.426a2.475,2.475,0,0,0-.757.138,2.2,2.2,0,0,0-1.859-.964,2.258,2.258,0,0,0-1.928,1.1h-.275a1.859,1.859,0,1,0,0,3.718h.207a2.11,2.11,0,0,0,3.925.207,2.447,2.447,0,0,0,.689.138,2.169,2.169,0,0,0,0-4.338Z" transform="translate(-413.845 -229.599)" fill="#cdeafb"/><path d="M437.671,260.146H426.1l-2.2-5.646h15.906Z" transform="translate(-413.503 -230.814)" fill="#fff"/><path d="M445.5,246.2a1.1,1.1,0,1,1-1.1-1.1A1.088,1.088,0,0,1,445.5,246.2Z" transform="translate(-419.545 -227.886)" fill="#fff"/><path d="M428.877,238.589a.689.689,0,1,1-.689-.689A.69.69,0,0,1,428.877,238.589Z" transform="translate(-414.624 -225.644)" fill="#fff"/></g><path d="M364.808,257.946l-.482-1.446-.482,1.446a1.474,1.474,0,0,1-1.308,1.033l-3.236.413,3.374.413a1.579,1.579,0,0,1,1.308,1.033l.482,1.446.482-1.446a1.474,1.474,0,0,1,1.308-1.033l3.236-.413-3.374-.413A1.579,1.579,0,0,1,364.808,257.946Z" transform="translate(-353.98 -221.934)" fill="#fff"/></g></g></svg>