<svg xmlns="http://www.w3.org/2000/svg" width="25.118" height="32.151" viewBox="0 0 25.118 32.151"><g opacity="0.8"><path d="M78.1,0H59.014A3.014,3.014,0,0,0,56,3.014v2.7a.314.314,0,0,0,.314.314H80.8a.314.314,0,0,0,.314-.314v-2.7A3.014,3.014,0,0,0,78.1,0ZM72.578,4.019h-.5a1,1,0,0,1,0-2.009h.5a1,1,0,1,1,0,2.009Zm4.019,0h-.5a1,1,0,1,1,0-2.009h.5a1,1,0,1,1,0,2.009Z" transform="translate(-56)" fill="#243746"/><path d="M56,128.314v22.795a1,1,0,0,0,1,1H80.113a1,1,0,0,0,1-1V128.314A.314.314,0,0,0,80.8,128H56.314A.314.314,0,0,0,56,128.314Zm12.559,2.7a8.038,8.038,0,1,1-8.038,8.037A8.047,8.047,0,0,1,68.559,131.014Z" transform="translate(-56 -119.962)" fill="#243746"/><path d="M167.037,312.128a6.039,6.039,0,0,0,5.669-3.976.314.314,0,0,0-.366-.413,8.394,8.394,0,0,1-1.927.237c-3.833,0-4.774-2.788-9.125-1.3a.314.314,0,0,0-.208.344A6.038,6.038,0,0,0,167.037,312.128Z" transform="translate(-154.477 -287.01)" fill="#243746"/><path d="M171.506,213.1a6.293,6.293,0,0,0,5.353.344.314.314,0,0,0,.208-.344,6.029,6.029,0,0,0-11.626-1.129.314.314,0,0,0,.368.413A8.15,8.15,0,0,1,171.506,213.1Z" transform="translate(-158.552 -194.939)" fill="#243746"/></g></svg>