<svg xmlns="http://www.w3.org/2000/svg" xmlns:xlink="http://www.w3.org/1999/xlink" width="31.02" height="39.706" viewBox="0 0 31.02 39.706"><defs><linearGradient id="a" x1="0.5" x2="0.5" y2="1" gradientUnits="objectBoundingBox"><stop offset="0" stop-color="#0097a7"/><stop offset="1" stop-color="#006d78"/></linearGradient></defs><g opacity="0.8"><path d="M83.3,0H59.722C57.667,0,56,1.349,56,3.014v2.7a.357.357,0,0,0,.388.314H86.632a.357.357,0,0,0,.388-.314v-2.7C87.02,1.349,85.353,0,83.3,0ZM76.473,4.019h-.62a1.141,1.141,0,0,1-1.241-1,1.141,1.141,0,0,1,1.241-1h.62a1.141,1.141,0,0,1,1.241,1A1.141,1.141,0,0,1,76.473,4.019Zm4.963,0h-.62a1.141,1.141,0,0,1-1.241-1,1.141,1.141,0,0,1,1.241-1h.62a1.141,1.141,0,0,1,1.241,1A1.141,1.141,0,0,1,81.436,4.019Z" transform="translate(-56)" fill="url(#a)"/><path d="M56,128.412v29.936a1.282,1.282,0,0,0,1.241,1.319H85.779a1.282,1.282,0,0,0,1.241-1.319V128.412a.4.4,0,0,0-.388-.412H56.388A.4.4,0,0,0,56,128.412Zm15.51,3.546c5.468,0,9.918,4.726,9.926,10.539.064,5.664-4.349,10.572-9.926,10.572-5.529,0-9.936-4.806-9.926-10.557C61.584,136.694,66.037,131.958,71.51,131.958Z" transform="translate(-56 -119.962)" fill="url(#a)"/><path d="M167.037,312.128a6.039,6.039,0,0,0,5.669-3.976.314.314,0,0,0-.366-.413,8.394,8.394,0,0,1-1.927.237c-3.833,0-4.774-2.788-9.125-1.3a.314.314,0,0,0-.208.344A6.038,6.038,0,0,0,167.037,312.128Z" transform="translate(-151.586 -281.478)" fill="url(#a)"/><path d="M171.506,213.1a6.293,6.293,0,0,0,5.353.344.314.314,0,0,0,.208-.344,6.029,6.029,0,0,0-11.626-1.129.314.314,0,0,0,.368.413A8.15,8.15,0,0,1,171.506,213.1Z" transform="translate(-155.541 -191.181)" fill="url(#a)"/></g></svg>